<?xml version="1.0" encoding="utf-8"?>
<!-- Generator: Adobe Illustrator 21.1.0, SVG Export Plug-In . SVG Version: 6.00 Build 0)  -->
<!DOCTYPE svg PUBLIC "-//W3C//DTD SVG 1.1//EN" "http://www.w3.org/Graphics/SVG/1.1/DTD/svg11.dtd">
<svg version="1.1" id="Layer_1" xmlns="http://www.w3.org/2000/svg" xmlns:xlink="http://www.w3.org/1999/xlink" x="0px" y="0px"
   viewBox="0 0 1410 370" style="enable-background:new 0 0 1410 370;" xml:space="preserve">
<style type="text/css">
  .st0{fill:#fff;}
  @keyframes dot {
    0%, 6%, 30%, 36%, 70%, 76% {
      opacity: 1;
    }
    1%, 5%, 31%, 35%, 71%, 75% {
      opacity: 0;
    }
  }
  .dot1 {
    animation: dot 8000ms linear infinite;
  }
  .dot2 {
    animation: dot 8000ms linear -4200ms infinite;
  }
  .dot3 {
    animation: dot 10000ms linear -8000ms infinite;
  }
  .dot4 {
    animation: dot 7000ms linear -1000ms infinite;
  }
  .dot5 {
    animation: dot 5000ms linear -2500ms infinite;
  }
  .dot6 {
    animation: dot 6000ms linear -3500ms infinite;
  }
  .dot7 {
    animation: dot 11000ms linear infinite;
  }
  .dot8 {
    animation: dot 12000ms linear -3200ms infinite;
  }
  .dot9 {
    animation: dot 15000ms linear -6000ms infinite;
  }
  .dot10 {
    animation: dot 2000ms linear -3000ms infinite;
  }






</style>
<circle class="st0" cx="3.5" cy="3.5" r="1"/> 
<circle class="st0" cx="3.5" cy="44.1" r="1"/> 
<circle class="st0" cx="3.5" cy="84.7" r="1"/> 
<circle class="st0" cx="3.5" cy="125.3" r="1"/> 
<circle class="st0" cx="3.5" cy="165.9" r="1"/> 
<circle class="st0" cx="3.5" cy="206.5" r="1"/> 
<circle class="st0" cx="3.5" cy="247.1" r="1"/> 
<circle class="st0" cx="3.5" cy="287.7" r="1"/> 
<circle class="st0" cx="3.5" cy="328.3" r="1"/> 
<circle class="st0" cx="44.1" cy="3.5" r="1"/> 
<circle class="st0" cx="44.1" cy="44.1" r="1"/> 
<circle class="st0" cx="44.1" cy="84.7" r="1"/> 
<circle class="st0" cx="44.1" cy="125.3" r="1"/> 
<circle class="st0" cx="44.1" cy="165.9" r="1"/> 
<circle class="st0" cx="44.1" cy="206.5" r="1"/> 
<circle class="st0" cx="44.1" cy="247.1" r="1"/> 
<circle class="st0 dot10" cx="44.1" cy="287.7" r="1"/> 
<circle class="st0 dot7" cx="44.1" cy="328.3" r="1"/> 
<circle class="st0" cx="84.7" cy="3.5" r="1"/> 
<circle class="st0" cx="84.7" cy="44.1" r="1"/> 
<circle class="st0 dot10" cx="84.7" cy="84.7" r="1"/> 
<circle class="st0" cx="84.7" cy="125.3" r="1"/> 
<circle class="st0 dot10" cx="84.7" cy="165.9" r="1"/> 
<circle class="st0" cx="84.7" cy="206.5" r="1"/> 
<circle class="st0 dot4" cx="84.7" cy="247.1" r="1"/> 
<circle class="st0 dot4" cx="84.7" cy="287.7" r="1"/> 
<circle class="st0" cx="84.7" cy="328.3" r="1"/> 
<circle class="st0" cx="125.3" cy="3.5" r="1"/> 
<circle class="st0" cx="125.3" cy="44.1" r="1"/> 
<circle class="st0" cx="125.3" cy="84.7" r="1"/> 
<circle class="st0" cx="125.3" cy="125.3" r="1"/> 
<circle class="st0" cx="125.3" cy="165.9" r="1"/> 
<circle class="st0" cx="125.3" cy="206.5" r="1"/> 
<circle class="st0" cx="125.3" cy="247.1" r="1"/> 
<circle class="st0" cx="125.3" cy="287.7" r="1"/> 
<circle class="st0" cx="125.3" cy="328.3" r="1"/> 
<circle class="st0" cx="165.9" cy="3.5" r="1"/> 
<circle class="st0" cx="165.9" cy="44.1" r="1"/> 
<circle class="st0" cx="165.9" cy="84.7" r="1"/> 
<circle class="st0" cx="165.9" cy="125.3" r="1"/> 
<circle class="st0" cx="165.9" cy="165.9" r="1"/> 
<circle class="st0 dot4" cx="165.9" cy="206.5" r="1"/> 
<circle class="st0" cx="165.9" cy="247.1" r="1"/> 
<circle class="st0" cx="165.9" cy="287.7" r="1"/> 
<circle class="st0" cx="165.9" cy="328.3" r="1"/> 
<circle class="st0" cx="206.5" cy="3.5" r="1"/> 
<circle class="st0" cx="206.5" cy="44.1" r="1"/> 
<circle class="st0" cx="206.5" cy="84.7" r="1"/> 
<circle class="st0" cx="206.5" cy="125.3" r="1"/> 
<circle class="st0" cx="206.5" cy="165.9" r="1"/> 
<circle class="st0" cx="206.5" cy="206.5" r="1"/> 
<circle class="st0" cx="206.5" cy="247.1" r="1"/> 
<circle class="st0 dot10" cx="206.5" cy="287.7" r="1"/> 
<circle class="st0" cx="206.5" cy="328.3" r="1"/> 
<circle class="st0" cx="247.1" cy="3.5" r="1"/> 
<circle class="st0" cx="247.1" cy="44.1" r="1"/> 
<circle class="st0" cx="247.1" cy="84.7" r="1"/> 
<circle class="st0 dot10" cx="247.1" cy="125.3" r="1"/> 
<circle class="st0" cx="247.1" cy="165.9" r="1"/> 
<circle class="st0" cx="247.1" cy="206.5" r="1"/> 
<circle class="st0" cx="247.1" cy="247.1" r="1"/> 
<circle class="st0 dot7" cx="247.1" cy="287.7" r="1"/> 
<circle class="st0" cx="247.1" cy="328.3" r="1"/> 
<circle class="st0" cx="287.7" cy="3.5" r="1"/> 
<circle class="st0" cx="287.7" cy="44.1" r="1"/> 
<circle class="st0" cx="287.7" cy="84.7" r="1"/> 
<circle class="st0 dot1" cx="287.7" cy="125.3" r="1"/> 
<circle class="st0 dot4" cx="287.7" cy="165.9" r="1"/> 
<circle class="st0" cx="287.7" cy="206.5" r="1"/> 
<circle class="st0" cx="287.7" cy="247.1" r="1"/> 
<circle class="st0" cx="287.7" cy="287.7" r="1"/> 
<circle class="st0" cx="287.7" cy="328.3" r="1"/> 
<circle class="st0" cx="328.3" cy="3.5" r="1"/> 
<circle class="st0 dot5" cx="328.3" cy="44.1" r="1"/> 
<circle class="st0" cx="328.3" cy="84.7" r="1"/> 
<circle class="st0 dot3" cx="328.3" cy="125.3" r="1"/> 
<circle class="st0" cx="328.3" cy="165.9" r="1"/> 
<circle class="st0" cx="328.3" cy="206.5" r="1"/> 
<circle class="st0" cx="328.3" cy="247.1" r="1"/> 
<circle class="st0" cx="328.3" cy="287.7" r="1"/> 
<circle class="st0" cx="328.3" cy="328.3" r="1"/> 
<circle class="st0" cx="368.9" cy="3.5" r="1"/> 
<circle class="st0" cx="368.9" cy="44.1" r="1"/> 
<circle class="st0 dot9" cx="368.9" cy="84.7" r="1"/> 
<circle class="st0 dot3" cx="368.9" cy="125.3" r="1"/> 
<circle class="st0" cx="368.9" cy="165.9" r="1"/> 
<circle class="st0 dot8" cx="368.9" cy="206.5" r="1"/> 
<circle class="st0" cx="368.9" cy="247.1" r="1"/> 
<circle class="st0" cx="368.9" cy="287.7" r="1"/> 
<circle class="st0" cx="368.9" cy="328.3" r="1"/> 
<circle class="st0" cx="409.5" cy="3.5" r="1"/> 
<circle class="st0" cx="409.5" cy="44.1" r="1"/> 
<circle class="st0" cx="409.5" cy="84.7" r="1"/> 
<circle class="st0" cx="409.5" cy="125.3" r="1"/> 
<circle class="st0" cx="409.5" cy="165.9" r="1"/> 
<circle class="st0" cx="409.5" cy="206.5" r="1"/> 
<circle class="st0" cx="409.5" cy="247.1" r="1"/> 
<circle class="st0" cx="409.5" cy="287.7" r="1"/> 
<circle class="st0" cx="409.5" cy="328.3" r="1"/> 
<circle class="st0" cx="450.1" cy="3.5" r="1"/> 
<circle class="st0 dot7" cx="450.1" cy="44.1" r="1"/> 
<circle class="st0" cx="450.1" cy="84.7" r="1"/> 
<circle class="st0 dot2" cx="450.1" cy="125.3" r="1"/> 
<circle class="st0" cx="450.1" cy="165.9" r="1"/> 
<circle class="st0" cx="450.1" cy="206.5" r="1"/> 
<circle class="st0" cx="450.1" cy="247.1" r="1"/> 
<circle class="st0" cx="450.1" cy="287.7" r="1"/> 
<circle class="st0" cx="450.1" cy="328.3" r="1"/> 
<circle class="st0 dot5" cx="490.7" cy="3.5" r="1"/> 
<circle class="st0" cx="490.7" cy="44.1" r="1"/> 
<circle class="st0" cx="490.7" cy="84.7" r="1"/> 
<circle class="st0" cx="490.7" cy="125.3" r="1"/> 
<circle class="st0" cx="490.7" cy="165.9" r="1"/> 
<circle class="st0 dot6" cx="490.7" cy="206.5" r="1"/> 
<circle class="st0 dot7" cx="490.7" cy="247.1" r="1"/> 
<circle class="st0" cx="490.7" cy="287.7" r="1"/> 
<circle class="st0" cx="490.7" cy="328.3" r="1"/> 
<circle class="st0" cx="531.3" cy="3.5" r="1"/> 
<circle class="st0" cx="531.3" cy="44.1" r="1"/> 
<circle class="st0" cx="531.3" cy="84.7" r="1"/> 
<circle class="st0" cx="531.3" cy="125.3" r="1"/> 
<circle class="st0" cx="531.3" cy="165.9" r="1"/> 
<circle class="st0" cx="531.3" cy="206.5" r="1"/> 
<circle class="st0" cx="531.3" cy="247.1" r="1"/> 
<circle class="st0" cx="531.3" cy="287.7" r="1"/> 
<circle class="st0" cx="531.3" cy="328.3" r="1"/> 
<circle class="st0" cx="571.9" cy="3.5" r="1"/> 
<circle class="st0 dot3" cx="571.9" cy="44.1" r="1"/> 
<circle class="st0" cx="571.9" cy="84.7" r="1"/> 
<circle class="st0" cx="571.9" cy="125.3" r="1"/> 
<circle class="st0" cx="571.9" cy="165.9" r="1"/> 
<circle class="st0" cx="571.9" cy="206.5" r="1"/> 
<circle class="st0" cx="571.9" cy="247.1" r="1"/> 
<circle class="st0" cx="571.9" cy="287.7" r="1"/> 
<circle class="st0 dot3" cx="571.9" cy="328.3" r="1"/> 
<circle class="st0" cx="612.5" cy="3.5" r="1"/> 
<circle class="st0" cx="612.5" cy="44.1" r="1"/> 
<circle class="st0" cx="612.5" cy="84.7" r="1"/> 
<circle class="st0" cx="612.5" cy="125.3" r="1"/> 
<circle class="st0" cx="612.5" cy="165.9" r="1"/> 
<circle class="st0" cx="612.5" cy="206.5" r="1"/> 
<circle class="st0" cx="612.5" cy="247.1" r="1"/> 
<circle class="st0" cx="612.5" cy="287.7" r="1"/> 
<circle class="st0" cx="612.5" cy="328.3" r="1"/> 
<circle class="st0" cx="653.1" cy="3.5" r="1"/> 
<circle class="st0" cx="653.1" cy="44.1" r="1"/> 
<circle class="st0" cx="653.1" cy="84.7" r="1"/> 
<circle class="st0" cx="653.1" cy="125.3" r="1"/> 
<circle class="st0" cx="653.1" cy="165.9" r="1"/> 
<circle class="st0" cx="653.1" cy="206.5" r="1"/> 
<circle class="st0" cx="653.1" cy="247.1" r="1"/> 
<circle class="st0" cx="653.1" cy="287.7" r="1"/> 
<circle class="st0" cx="653.1" cy="328.3" r="1"/> 
<circle class="st0" cx="693.7" cy="3.5" r="1"/> 
<circle class="st0" cx="693.7" cy="44.1" r="1"/> 
<circle class="st0" cx="693.7" cy="84.7" r="1"/> 
<circle class="st0" cx="693.7" cy="125.3" r="1"/> 
<circle class="st0" cx="693.7" cy="165.9" r="1"/> 
<circle class="st0" cx="693.7" cy="206.5" r="1"/> 
<circle class="st0" cx="693.7" cy="247.1" r="1"/> 
<circle class="st0" cx="693.7" cy="287.7" r="1"/> 
<circle class="st0" cx="693.7" cy="328.3" r="1"/> 
<circle class="st0 dot3" cx="734.3" cy="3.5" r="1"/> 
<circle class="st0" cx="734.3" cy="44.1" r="1"/> 
<circle class="st0" cx="734.3" cy="84.7" r="1"/> 
<circle class="st0" cx="734.3" cy="125.3" r="1"/> 
<circle class="st0" cx="734.3" cy="165.9" r="1"/> 
<circle class="st0 dot6" cx="734.3" cy="206.5" r="1"/> 
<circle class="st0 dot7" cx="734.3" cy="247.1" r="1"/> 
<circle class="st0" cx="734.3" cy="287.7" r="1"/> 
<circle class="st0" cx="734.3" cy="328.3" r="1"/> 
<circle class="st0" cx="774.9" cy="3.5" r="1"/> 
<circle class="st0" cx="774.9" cy="44.1" r="1"/> 
<circle class="st0 dot4" cx="774.9" cy="84.7" r="1"/> 
<circle class="st0" cx="774.9" cy="125.3" r="1"/> 
<circle class="st0 dot6" cx="774.9" cy="165.9" r="1"/> 
<circle class="st0" cx="774.9" cy="206.5" r="1"/> 
<circle class="st0" cx="774.9" cy="247.1" r="1"/> 
<circle class="st0" cx="774.9" cy="287.7" r="1"/> 
<circle class="st0" cx="774.9" cy="328.3" r="1"/> 
<circle class="st0" cx="815.5" cy="3.5" r="1"/> 
<circle class="st0 dot2" cx="815.5" cy="44.1" r="1"/> 
<circle class="st0 dot2" cx="815.5" cy="84.7" r="1"/> 
<circle class="st0" cx="815.5" cy="125.3" r="1"/> 
<circle class="st0" cx="815.5" cy="165.9" r="1"/> 
<circle class="st0" cx="815.5" cy="206.5" r="1"/> 
<circle class="st0 dot5" cx="815.5" cy="247.1" r="1"/> 
<circle class="st0" cx="815.5" cy="287.7" r="1"/> 
<circle class="st0" cx="815.5" cy="328.3" r="1"/> 
<circle class="st0" cx="856.1" cy="3.5" r="1"/> 
<circle class="st0" cx="856.1" cy="44.1" r="1"/> 
<circle class="st0" cx="856.1" cy="84.7" r="1"/> 
<circle class="st0" cx="856.1" cy="125.3" r="1"/> 
<circle class="st0" cx="856.1" cy="165.9" r="1"/> 
<circle class="st0 dot6" cx="856.1" cy="206.5" r="1"/> 
<circle class="st0 dot7" cx="856.1" cy="247.1" r="1"/> 
<circle class="st0" cx="856.1" cy="287.7" r="1"/> 
<circle class="st0" cx="856.1" cy="328.3" r="1"/> 
<circle class="st0 dot6" cx="896.7" cy="3.5" r="1"/> 
<circle class="st0 dot10" cx="896.7" cy="44.1" r="1"/> 
<circle class="st0" cx="896.7" cy="84.7" r="1"/> 
<circle class="st0 dot8" cx="896.7" cy="125.3" r="1"/> 
<circle class="st0" cx="896.7" cy="165.9" r="1"/> 
<circle class="st0" cx="896.7" cy="206.5" r="1"/> 
<circle class="st0" cx="896.7" cy="247.1" r="1"/> 
<circle class="st0" cx="896.7" cy="287.7" r="1"/> 
<circle class="st0" cx="896.7" cy="328.3" r="1"/> 
<circle class="st0" cx="937.3" cy="3.5" r="1"/> 
<circle class="st0" cx="937.3" cy="44.1" r="1"/> 
<circle class="st0" cx="937.3" cy="84.7" r="1"/> 
<circle class="st0" cx="937.3" cy="125.3" r="1"/> 
<circle class="st0" cx="937.3" cy="165.9" r="1"/> 
<circle class="st0" cx="937.3" cy="206.5" r="1"/> 
<circle class="st0" cx="937.3" cy="247.1" r="1"/> 
<circle class="st0" cx="937.3" cy="287.7" r="1"/> 
<circle class="st0" cx="937.3" cy="328.3" r="1"/> 
<circle class="st0 dot4" cx="977.9" cy="3.5" r="1"/> 
<circle class="st0" cx="977.9" cy="44.1" r="1"/> 
<circle class="st0" cx="977.9" cy="84.7" r="1"/> 
<circle class="st0" cx="977.9" cy="125.3" r="1"/> 
<circle class="st0 dot5" cx="977.9" cy="165.9" r="1"/> 
<circle class="st0" cx="977.9" cy="206.5" r="1"/> 
<circle class="st0 dot2" cx="977.9" cy="247.1" r="1"/> 
<circle class="st0" cx="977.9" cy="287.7" r="1"/> 
<circle class="st0" cx="977.9" cy="328.3" r="1"/> 
<circle class="st0" cx="1018.5" cy="3.5" r="1"/> 
<circle class="st0 dot4" cx="1018.5" cy="44.1" r="1"/> 
<circle class="st0" cx="1018.5" cy="84.7" r="1"/> 
<circle class="st0 dot2" cx="1018.5" cy="125.3" r="1"/> 
<circle class="st0" cx="1018.5" cy="165.9" r="1"/> 
<circle class="st0" cx="1018.5" cy="206.5" r="1"/> 
<circle class="st0" cx="1018.5" cy="247.1" r="1"/> 
<circle class="st0" cx="1018.5" cy="287.7" r="1"/> 
<circle class="st0" cx="1018.5" cy="328.3" r="1"/> 
<circle class="st0" cx="1059.1" cy="3.5" r="1"/> 
<circle class="st0 dot2" cx="1059.1" cy="44.1" r="1"/> 
<circle class="st0 dot5" cx="1059.1" cy="84.7" r="1"/> 
<circle class="st0" cx="1059.1" cy="125.3" r="1"/> 
<circle class="st0" cx="1059.1" cy="165.9" r="1"/> 
<circle class="st0" cx="1059.1" cy="206.5" r="1"/> 
<circle class="st0 dot6" cx="1059.1" cy="247.1" r="1"/> 
<circle class="st0 dot6" cx="1059.1" cy="287.7" r="1"/> 
<circle class="st0" cx="1059.1" cy="328.3" r="1"/> 
<circle class="st0" cx="1099.7" cy="3.5" r="1"/> 
<circle class="st0 dot6" cx="1099.7" cy="44.1" r="1"/> 
<circle class="st0" cx="1099.7" cy="84.7" r="1"/> 
<circle class="st0" cx="1099.7" cy="125.3" r="1"/> 
<circle class="st0 dot7" cx="1099.7" cy="165.9" r="1"/> 
<circle class="st0" cx="1099.7" cy="206.5" r="1"/> 
<circle class="st0" cx="1099.7" cy="247.1" r="1"/> 
<circle class="st0 dot5" cx="1099.7" cy="287.7" r="1"/> 
<circle class="st0" cx="1099.7" cy="328.3" r="1"/> 
<circle class="st0" cx="1140.3" cy="3.5" r="1"/> 
<circle class="st0 dot5" cx="1140.3" cy="44.1" r="1"/> 
<circle class="st0" cx="1140.3" cy="84.7" r="1"/> 
<circle class="st0" cx="1140.3" cy="125.3" r="1"/> 
<circle class="st0 dot8" cx="1140.3" cy="165.9" r="1"/> 
<circle class="st0 dot9" cx="1140.3" cy="206.5" r="1"/> 
<circle class="st0" cx="1140.3" cy="247.1" r="1"/> 
<circle class="st0" cx="1140.3" cy="287.7" r="1"/> 
<circle class="st0" cx="1140.3" cy="328.3" r="1"/> 
<circle class="st0" cx="1180.9" cy="3.5" r="1"/> 
<circle class="st0" cx="1180.9" cy="44.1" r="1"/> 
<circle class="st0" cx="1180.9" cy="84.7" r="1"/> 
<circle class="st0" cx="1180.9" cy="125.3" r="1"/> 
<circle class="st0 dot2" cx="1180.9" cy="165.9" r="1"/> 
<circle class="st0" cx="1180.9" cy="206.5" r="1"/> 
<circle class="st0" cx="1180.9" cy="247.1" r="1"/> 
<circle class="st0" cx="1180.9" cy="287.7" r="1"/> 
<circle class="st0" cx="1180.9" cy="328.3" r="1"/> 
<circle class="st0" cx="1221" cy="3.5" r="1"/> 
<circle class="st0" cx="1221" cy="44.1" r="1"/> 
<circle class="st0" cx="1221" cy="84.7" r="1"/> 
<circle class="st0" cx="1221" cy="125.3" r="1"/> 
<circle class="st0 dot10" cx="1221" cy="165.9" r="1"/> 
<circle class="st0" cx="1221" cy="206.5" r="1"/> 
<circle class="st0" cx="1221" cy="247.1" r="1"/> 
<circle class="st0 dot1" cx="1221" cy="287.7" r="1"/> 
<circle class="st0" cx="1221" cy="328.3" r="1"/> 
<circle class="st0" cx="1262.1" cy="3.5" r="1"/> 
<circle class="st0" cx="1262.1" cy="44.1" r="1"/> 
<circle class="st0" cx="1262.1" cy="84.7" r="1"/> 
<circle class="st0" cx="1262.1" cy="125.3" r="1"/> 
<circle class="st0" cx="1262.1" cy="165.9" r="1"/> 
<circle class="st0 dot7" cx="1262.1" cy="206.5" r="1"/> 
<circle class="st0" cx="1262.1" cy="247.1" r="1"/> 
<circle class="st0 dot10" cx="1262.1" cy="287.7" r="1"/> 
<circle class="st0" cx="1262.1" cy="328.3" r="1"/> 
<circle class="st0" cx="1302.7" cy="3.5" r="1"/> 
<circle class="st0 dot6" cx="1302.7" cy="44.1" r="1"/> 
<circle class="st0" cx="1302.7" cy="84.7" r="1"/> 
<circle class="st0" cx="1302.7" cy="125.3" r="1"/> 
<circle class="st0" cx="1302.7" cy="165.9" r="1"/> 
<circle class="st0" cx="1302.7" cy="206.5" r="1"/> 
<circle class="st0" cx="1302.7" cy="247.1" r="1"/> 
<circle class="st0 dot1" cx="1302.7" cy="287.7" r="1"/> 
<circle class="st0 dot4" cx="1302.7" cy="328.3" r="1"/> 
<circle class="st0" cx="1343.3" cy="3.5" r="1"/> 
<circle class="st0" cx="1343.3" cy="44.1" r="1"/> 
<circle class="st0" cx="1343.3" cy="84.7" r="1"/> 
<circle class="st0 dot7" cx="1343.3" cy="125.3" r="1"/> 
<circle class="st0" cx="1343.3" cy="165.9" r="1"/> 
<circle class="st0" cx="1343.3" cy="206.5" r="1"/> 
<circle class="st0" cx="1343.3" cy="247.1" r="1"/> 
<circle class="st0 dot8" cx="1343.3" cy="287.7" r="1"/> 
<circle class="st0" cx="1343.3" cy="328.3" r="1"/> 
<circle class="st0" cx="1383.9" cy="3.5" r="1"/> 
<circle class="st0" cx="1383.9" cy="44.1" r="1"/> 
<circle class="st0" cx="1383.9" cy="84.7" r="1"/> 
<circle class="st0" cx="1383.9" cy="125.3" r="1"/> 
<circle class="st0" cx="1383.9" cy="165.9" r="1"/> 
<circle class="st0" cx="1383.9" cy="206.5" r="1"/> 
<circle class="st0" cx="1383.9" cy="247.1" r="1"/> 
<circle class="st0" cx="1383.9" cy="287.7" r="1"/> 
<circle class="st0" cx="1383.9" cy="328.3" r="1"/> 



</svg>
