<svg xmlns="http://www.w3.org/2000/svg" xmlns:xlink="http://www.w3.org/1999/xlink" viewBox="0 0 60 75" version="1.1" x="0px" y="0px"><title>44 -News Satellite- (Solid)</title><desc>Created with Sketch.</desc><g stroke="none" stroke-width="1" fill="none" fill-rule="evenodd"><g transform="translate(-465.000000, -856.000000)" fill="#000000"><g transform="translate(465.000000, 856.000000)"><path d="M48.4926,28.3925 C48.4716,28.3935 48.4526,28.3955 48.4306,28.3945 C48.3996,28.3935 48.3666,28.3905 48.3316,28.3865 C48.2766,28.3795 48.2176,28.3695 48.1526,28.3545 C48.1276,28.3485 48.1016,28.3425 48.0746,28.3355 C47.9866,28.3125 47.8936,28.2835 47.7906,28.2475 C47.7796,28.2435 47.7686,28.2395 47.7586,28.2355 C46.7706,27.8775 45.1126,26.9225 43.0376,25.2985 C43.0236,25.2875 43.0106,25.2775 42.9966,25.2665 C42.7686,25.0885 42.5346,24.8985 42.2966,24.7035 C42.2566,24.6705 42.2186,24.6405 42.1786,24.6075 C41.9636,24.4295 41.7426,24.2405 41.5196,24.0495 C41.4566,23.9945 41.3946,23.9445 41.3306,23.8885 C41.1296,23.7135 40.9236,23.5285 40.7186,23.3435 C40.6296,23.2635 40.5426,23.1885 40.4526,23.1065 C40.2566,22.9275 40.0556,22.7375 39.8556,22.5495 C39.7546,22.4545 39.6556,22.3645 39.5526,22.2665 C39.4856,22.2025 39.4156,22.1315 39.3476,22.0665 L42.1606,19.2535 C46.5556,23.8055 48.5176,27.3875 48.4926,28.3925 L48.4926,28.3925 Z M37.5406,31.3475 C36.2336,31.7845 34.7926,31.8425 33.6016,31.3925 C33.3776,31.3085 33.1706,31.2065 32.9756,31.0915 C32.9396,31.0705 32.9006,31.0535 32.8656,31.0305 C32.6466,30.8925 32.4456,30.7365 32.2686,30.5595 L29.4406,27.7315 C29.2626,27.5535 29.1066,27.3515 28.9676,27.1325 C28.9476,27.1005 28.9326,27.0655 28.9126,27.0335 C28.7956,26.8345 28.6906,26.6235 28.6056,26.3945 C28.1566,25.2045 28.2156,23.7655 28.6526,22.4605 C28.7026,22.5755 28.7676,22.6865 28.8206,22.8015 C28.9416,23.0645 29.0686,23.3265 29.2066,23.5865 C29.3046,23.7715 29.4056,23.9555 29.5116,24.1385 C29.6556,24.3875 29.8096,24.6325 29.9686,24.8775 C30.0816,25.0515 30.1926,25.2255 30.3126,25.3965 C30.4996,25.6625 30.7006,25.9215 30.9056,26.1805 C31.0146,26.3175 31.1166,26.4585 31.2296,26.5935 C31.5566,26.9825 31.9006,27.3635 32.2686,27.7315 C33.6716,29.1335 35.2636,30.2465 36.9576,31.0615 C37.1376,31.1485 37.3156,31.2475 37.4976,31.3265 C37.5116,31.3325 37.5256,31.3415 37.5406,31.3475 L37.5406,31.3475 Z M30.1476,42.5805 L29.4406,43.2875 L28.7336,43.9945 L25.9046,41.1665 L27.3186,39.7525 L30.1476,42.5805 Z M21.7276,46.7575 C21.3016,47.1835 20.6086,47.1835 20.1826,46.7575 L13.2426,39.8185 C12.8166,39.3925 12.8166,38.6985 13.2426,38.2715 L13.8836,37.6305 L18.1266,41.8735 L20.9556,44.7025 L20.9556,44.7025 L22.3696,46.1165 L21.7276,46.7575 Z M40.7466,17.8395 L37.9336,20.6525 C37.8686,20.5845 37.7976,20.5145 37.7336,20.4465 C37.6306,20.3395 37.5356,20.2345 37.4346,20.1285 C37.2536,19.9345 37.0696,19.7405 36.8966,19.5515 C36.7906,19.4355 36.6926,19.3225 36.5896,19.2075 C36.4326,19.0325 36.2736,18.8565 36.1246,18.6845 C36.0216,18.5665 35.9276,18.4525 35.8286,18.3365 C35.6896,18.1745 35.5496,18.0115 35.4186,17.8535 C35.3186,17.7325 35.2256,17.6165 35.1296,17.4985 C35.0106,17.3505 34.8886,17.2015 34.7746,17.0575 C34.6826,16.9405 34.5976,16.8275 34.5086,16.7125 C34.4016,16.5735 34.2926,16.4325 34.1916,16.2975 C34.1086,16.1865 34.0326,16.0805 33.9546,15.9735 C33.8586,15.8405 33.7606,15.7075 33.6706,15.5795 C33.5966,15.4745 33.5286,15.3745 33.4586,15.2725 C33.3746,15.1495 33.2886,15.0255 33.2106,14.9075 C33.1446,14.8075 33.0836,14.7125 33.0226,14.6155 C32.9496,14.5035 32.8766,14.3905 32.8106,14.2825 C32.7536,14.1895 32.7016,14.1015 32.6486,14.0125 C32.5866,13.9085 32.5246,13.8045 32.4686,13.7055 C32.4206,13.6215 32.3766,13.5405 32.3326,13.4605 C32.2816,13.3655 32.2306,13.2725 32.1846,13.1825 C32.1456,13.1065 32.1106,13.0345 32.0756,12.9615 C32.0346,12.8775 31.9936,12.7945 31.9586,12.7155 C31.9276,12.6475 31.9016,12.5845 31.8746,12.5215 C31.8436,12.4475 31.8146,12.3745 31.7886,12.3075 C31.7666,12.2485 31.7476,12.1945 31.7306,12.1405 C31.7096,12.0775 31.6906,12.0165 31.6746,11.9605 C31.6616,11.9115 31.6506,11.8655 31.6406,11.8215 C31.6296,11.7705 31.6206,11.7225 31.6146,11.6785 C31.6096,11.6395 31.6076,11.6035 31.6056,11.5695 C31.6056,11.5465 31.6066,11.5275 31.6076,11.5065 L31.6266,11.5065 C32.6586,11.5065 36.2236,13.4735 40.7466,17.8395 L40.7466,17.8395 Z M17.4196,29.8525 L20.2476,32.6805 L18.8336,34.0955 L16.0056,31.2675 L17.4196,29.8525 Z M45.4886,15.9255 C46.1546,16.1015 46.8916,15.9365 47.4146,15.4145 C48.1956,14.6335 48.1956,13.3665 47.4146,12.5855 C46.6336,11.8045 45.3666,11.8045 44.5856,12.5855 C44.0636,13.1075 43.8986,13.8455 44.0746,14.5115 L42.1606,16.4255 C39.8796,14.2225 37.5676,12.3495 35.5766,11.1055 C32.8936,9.4275 31.1176,9.0835 30.1476,10.0535 C30.1456,10.0545 30.1446,10.0565 30.1436,10.0575 C27.7166,12.4875 26.9736,16.0845 27.7736,19.7375 C26.5356,21.6115 25.9546,24.1835 26.5146,26.4145 L21.6626,31.2675 L18.8336,28.4385 L20.9556,26.3175 C21.2746,25.9985 21.3406,25.5035 21.1156,25.1125 L17.8836,19.4895 L5.4346,31.9375 L9.6356,36.2105 C9.8226,36.4015 10.0776,36.5085 10.3446,36.5095 L10.3486,36.5095 C10.6136,36.5095 10.8686,36.4045 11.0556,36.2165 L14.5916,32.6815 L17.4196,35.5095 L16.0056,36.9245 L14.5906,35.5095 C14.2006,35.1195 13.5676,35.1195 13.1766,35.5095 L11.8286,36.8575 C10.6226,38.0645 10.6226,40.0275 11.8286,41.2325 L18.7686,48.1715 C19.3716,48.7755 20.1636,49.0765 20.9556,49.0765 C21.7476,49.0765 22.5396,48.7755 23.1426,48.1715 L24.4906,46.8235 C24.6786,46.6355 24.7836,46.3815 24.7836,46.1165 C24.7836,45.8505 24.6786,45.5965 24.4906,45.4095 L23.0766,43.9945 L24.4906,42.5805 L27.3196,45.4085 L23.7836,48.9445 C23.5956,49.1325 23.4896,49.3885 23.4906,49.6555 C23.4916,49.9215 23.5996,50.1775 23.7896,50.3645 L28.0626,54.5655 L40.5106,42.1165 L34.8886,38.8845 C34.4966,38.6605 34.0026,38.7255 33.6836,39.0445 L31.5616,41.1665 L28.7326,38.3375 L33.5826,33.4885 C34.1616,33.6335 34.7636,33.7045 35.3706,33.7045 C37.1026,33.7045 38.8716,33.1435 40.2586,32.2275 C41.1946,32.4335 42.1276,32.5375 43.0376,32.5375 C45.6826,32.5375 48.1386,31.6615 49.9466,29.8525 C52.3556,27.4425 45.8926,20.2625 43.5736,17.8405 L45.4886,15.9255 Z"/><path d="M13.8672,12.502 C13.7082,12.226 13.4282,12.042 13.1122,12.006 C12.7932,11.973 12.4812,12.088 12.2652,12.321 L0.2652,25.321 C-0.0968,25.714 -0.0868,26.32 0.2872,26.701 L4.0332,30.512 L16.8512,17.693 L13.8672,12.502 Z"/><path d="M47.4985,46.1328 L42.3065,43.1488 L29.4885,55.9668 L33.2985,59.7128 C33.4935,59.9038 33.7465,59.9998 33.9995,59.9998 C34.2435,59.9998 34.4865,59.9118 34.6785,59.7348 L47.6785,47.7348 C47.9125,47.5188 48.0295,47.2048 47.9935,46.8888 C47.9575,46.5718 47.7745,46.2918 47.4985,46.1328"/><path d="M45,0 C44.448,0 44,0.447 44,1 C44,1.553 44.448,2 45,2 C52.168,2 58,7.832 58,15 C58,15.553 58.448,16 59,16 C59.552,16 60,15.553 60,15 C60,6.729 53.271,0 45,0"/><path d="M45,6 C44.448,6 44,6.447 44,7 C44,7.553 44.448,8 45,8 C48.86,8 52,11.141 52,15 C52,15.553 52.448,16 53,16 C53.552,16 54,15.553 54,15 C54,10.037 49.962,6 45,6"/></g></g></g><text x="0" y="75" fill="#000000" font-size="5px" font-weight="bold" font-family="'Helvetica Neue', Helvetica, Arial-Unicode, Arial, Sans-serif">Created by Oliviu Stoian</text><text x="0" y="80" fill="#000000" font-size="5px" font-weight="bold" font-family="'Helvetica Neue', Helvetica, Arial-Unicode, Arial, Sans-serif">from the Noun Project</text></svg>