<svg xmlns="http://www.w3.org/2000/svg" xmlns:xlink="http://www.w3.org/1999/xlink" version="1.1" x="0px" y="0px" viewBox="0 0 100 125" enable-background="new 0 0 100 100" xml:space="preserve"><g><path d="M80.913,51.6c-0.697-10.409-9.383-18.664-19.964-18.664S41.684,41.191,40.986,51.6c-8.534,1.553-14.087,4.074-14.087,6.92   c0,4.719,15.245,8.545,34.05,8.545S95,63.238,95,58.52C95,55.674,89.446,53.152,80.913,51.6z M60.949,34.076   c10.408,0,18.876,8.467,18.876,18.875c0,1.666-7.971,5.584-18.876,5.584c-10.706,0-18.875-3.965-18.875-5.584   C42.074,42.542,50.541,34.076,60.949,34.076z"/><g><rect x="19.051" y="38.28" width="15.774" height="2"/></g><g><rect x="12.722" y="45.305" width="15.774" height="2"/></g><g><rect x="5" y="52.33" width="15.774" height="2"/></g></g><text x="0" y="115" fill="#000000" font-size="5px" font-weight="bold" font-family="'Helvetica Neue', Helvetica, Arial-Unicode, Arial, Sans-serif">Created by Ates Evren Aydinel</text><text x="0" y="120" fill="#000000" font-size="5px" font-weight="bold" font-family="'Helvetica Neue', Helvetica, Arial-Unicode, Arial, Sans-serif">from the Noun Project</text></svg>