<svg xmlns="http://www.w3.org/2000/svg" xmlns:xlink="http://www.w3.org/1999/xlink" version="1.1" x="0px" y="0px" viewBox="0 0 64 80" style="enable-background:new 0 0 64 64;" xml:space="preserve"><g><path d="M63,40c0-2.12-2.034-3.96-6-5.483V30h-4v-8c0-11.58-9.42-21-21-21s-21,9.42-21,21v8H7v4.517C3.034,36.04,1,37.88,1,40   c0,2.655,3.301,4.753,8.306,6.254L12.236,57H21v2h2v-2h18v2h2v-2h8.764l2.931-10.746C59.699,44.753,63,42.655,63,40z M9,32h2v6h2   V22c0-10.477,8.523-19,19-19s19,8.523,19,19v16h2v-6h2v6.42c-1.045,0.54-4.07,1.849-10,2.726v-5.253   c0-3.846-2.766-7.053-6.412-7.748c0.456-0.597,0.785-1.302,0.917-2.09l0.216-1.299c0.123-0.739,0.552-1.401,1.176-1.817   C42.214,22.059,43,20.59,43,19.007v-3.57C43,10.785,39.215,7,34.562,7h-5.125C24.785,7,21,10.785,21,15.438v3.57   c0,1.583,0.786,3.052,2.103,3.93c0.624,0.416,1.053,1.079,1.176,1.818l0.216,1.298c0.131,0.788,0.461,1.494,0.917,2.09   C21.766,28.84,19,32.047,19,35.893v5.253c-5.935-0.878-8.96-2.188-10-2.726V32z M37,35c0-0.552,0.449-1,1-1s1,0.448,1,1   s-0.449,1-1,1S37,35.552,37,35z M39,37.816c1.161-0.414,2-1.514,2-2.816c0-1.654-1.346-3-3-3s-3,1.346-3,3   c0,1.302,0.839,2.402,2,2.816v4.072C35.449,41.959,33.789,42,32,42s-3.448-0.041-5-0.112v-4.072c1.161-0.414,2-1.514,2-2.816   c0-1.654-1.346-3-3-3s-3,1.346-3,3c0,1.302,0.839,2.402,2,2.816v3.957c-1.444-0.097-2.773-0.221-4-0.365v-5.516   C21,32.644,23.644,30,26.893,30h2.261h5.692h2.261C40.356,30,43,32.644,43,35.893v5.516c-1.227,0.144-2.556,0.268-4,0.365V37.816z    M25,35c0-0.552,0.449-1,1-1s1,0.448,1,1s-0.449,1-1,1S25,35.552,25,35z M37.532,25.725C37.312,27.043,36.183,28,34.846,28h-5.692   c-1.336,0-2.466-0.957-2.686-2.275l-0.216-1.298c-0.213-1.283-0.957-2.432-2.039-3.153C23.453,20.767,23,19.92,23,19.007v-3.57   C23,11.888,25.888,9,29.438,9h5.125C38.112,9,41,11.888,41,15.438v3.57c0,0.913-0.453,1.76-1.212,2.266   c-1.083,0.721-1.826,1.871-2.039,3.153L37.532,25.725z M50.236,55H49v-2h-2v2h-2v-2h-2v2h-2v-2h-2v2h-2v-2h-2v2h-2v-2h-2v2h-2v-2   h-2v2h-2v-2h-2v2h-2v-2h-2v2h-2v-2h-2v2h-1.236l-2.22-8.141C17.327,48.268,24.77,49,32,49s14.673-0.732,20.456-2.141L50.236,55z    M32,47c-17.967,0-29-4.077-29-7c0-1.055,1.475-2.265,4-3.336v2.86l0.431,0.298C7.677,39.993,13.678,44,32,44   s24.323-4.007,24.569-4.178L57,39.524v-2.86c2.525,1.071,4,2.281,4,3.336C61,42.923,49.967,47,32,47z"/><path d="M31,16c0-1.654-1.346-3-3-3s-3,1.346-3,3s1.346,3,3,3S31,17.654,31,16z M28,17c-0.551,0-1-0.449-1-1s0.449-1,1-1   s1,0.449,1,1S28.551,17,28,17z"/><path d="M36,13c-1.654,0-3,1.346-3,3s1.346,3,3,3s3-1.346,3-3S37.654,13,36,13z M36,17c-0.551,0-1-0.449-1-1s0.449-1,1-1   s1,0.449,1,1S36.551,17,36,17z"/><rect x="29" y="23" width="6" height="2"/><rect x="12" y="59" width="2" height="4"/><rect x="50" y="59" width="2" height="4"/><rect x="41" y="61" width="2" height="2"/><rect x="21" y="61" width="2" height="2"/><rect x="31" y="59" width="2" height="2"/></g><text x="0" y="79" fill="#000000" font-size="5px" font-weight="bold" font-family="'Helvetica Neue', Helvetica, Arial-Unicode, Arial, Sans-serif">Created by Eucalyp</text><text x="0" y="84" fill="#000000" font-size="5px" font-weight="bold" font-family="'Helvetica Neue', Helvetica, Arial-Unicode, Arial, Sans-serif">from the Noun Project</text></svg>